<?xml version="1.0"?>
<svg xmlns="http://www.w3.org/2000/svg" viewBox="0 0 512 512">
<rect width="512" height="512" fill="#004a91"/>
  <g transform="translate(30 90) scale(1.2)">
    <path fill="white" d="M171.7,120.8v51.7h21.6c9.5,0,14.1-3.5,16.2-3.5,1.8,0,3.2,1.4,3.2,4.2,0,3.2-3.5,17.6-6,22.2-1.8,3.2-3.5,4.6-9.5,4.6H172c.1,7.2.2,12.2.4,14.6.4,8.8,1.9,22.9,4.7,26.7,4.6,6.7,18.6,14.1,46.3,14.1,35.9,0,59.8-7,80.9-25.3,22.5-19.3,29.5-51.3,29.5-87.5,0-44.6-18.6-73.5-33.8-87.9-32.4-30.9-72.4-35.2-99.9-35.2-7,0-21.1,1.1-24,2.5-3.2,1.4-4.4,3.2-4.4,7v91.8H129V63.9c-8.1,10.2-79.8,92.8-91.8,108.6h80.6v27.4H8.8c-4.2,0-8.8-1.4-8.8-5.3,0-4.2,3.2-7.4,4.6-9.1C7.1,182.7,149.9,11.3,152.8,7.9c5.6-6.5,8.1-8,11.9-7.9,5.9.3,5.1,4.7,14.5,3.6.9-.1,12.7-.8,26.5-.8,43.9,0,102.7,0,141,40.1,17.6,18.3,34.1,47.5,34.1,89.3,0,44.3-18.6,78.1-38.3,98.1-16.2,16.5-52.7,41.5-117.8,41.5-13.4,0-48-2.6-78.9-2.6-9.8,0-28.8,1.1-48.2,1.1-3.9,0-5.6-1.8-5.6-4.3s1.1-4.6,2.8-4.6c3.2,0,10.9-.4,16.5-1,13.4-1.4,15.9-6.9,16.5-17.8,1.2-19.1,1.1-42.5,1.1-42.5V120.9h42.8"/>
  </g>
</svg>
